<svg version="1.1" id="Layer_1" xmlns="http://www.w3.org/2000/svg" x="0" y="0" viewBox="0 0 334 192" xml:space="preserve"><style>.st0{fill:#fff}</style><path class="st0" d="M150 78.6C150 78.6 150 78.6 150 78.6L150 78.6 150 78.6zM308 42.7C300.2 12.3 269.3-6 238.9 1.8c-4.4 1.1-8.7 2.8-12.7 4.9V2.5h-16.4v108.8h16.4v-4.2c4 2.2 8.3 3.8 12.7 4.9 4.6 1.1 9.3 1.7 14 1.7l0 0c5.1 0 10.2-.7 15.1-2 4.8-1.3 9.3-3.2 13.6-5.7C303.6 93.2 314.3 67.3 308 42.7zM268.6 94.4c-5 2.1-10.3 3.2-15.7 3.2-3.6 0-7.2-.5-10.7-1.4-3.4-.9-6.6-2.2-9.6-4l-6.3 11V11l6.4 10.9c3-1.7 6.2-3.1 9.5-4 3.5-.9 7.1-1.4 10.7-1.4 5.4 0 10.8 1 15.7 3.2 4.8 2 9.2 5 12.8 8.7 3.7 3.7 6.6 8.1 8.6 12.9C298.7 61.9 289.1 85.7 268.6 94.4zM186.1 89.9c8.4-19.9-1-42.9-20.9-51.3-4.8-2.1-10-3.1-15.2-3.1v16.3c3.1 0 6.1.6 8.9 1.8 5.5 2.3 9.9 6.7 12.2 12.2 1.2 2.8 1.8 5.9 1.8 8.9 0 3.1-.6 6.1-1.8 8.9-1.4 3.4-3.7 6.4-6.6 8.8-9.8 8-24.2 6.5-32.2-3.2-1.4-1.7-2.6-3.7-3.5-5.7l-15 6.3c1.5 3.5 3.4 6.8 5.8 9.8 2.4 3 5.2 5.5 8.3 7.7 3.2 2.2 6.6 3.8 10.3 5 3.8 1.2 7.7 1.8 11.7 1.8l0 0c5.2 0 10.4-1 15.2-3.1C174.7 106.8 182.2 99.3 186.1 89.9z"/><path class="st0" d="M134.8 75.5c4.8 2.1 10 3.1 15.2 3.1V62.3c-3 0-6.1-.6-8.9-1.8-5.5-2.3-9.8-6.7-12.1-12.2-1.2-2.8-1.8-5.8-1.8-8.9 0-3.1.6-6.1 1.8-8.9 2.3-5.5 6.7-9.9 12.1-12.2 2.8-1.2 5.8-1.8 8.9-1.8 2.3 0 4.6.3 6.8 1 2.1.7 4.2 1.6 6 2.9 1.8 1.3 3.5 2.8 4.9 4.5 1.4 1.7 2.5 3.7 3.4 5.7l15-6.3c-1.5-3.5-3.4-6.8-5.9-9.7-2.4-2.9-5.2-5.5-8.3-7.7-6.5-4.4-14.1-6.8-21.9-6.7-5.2 0-10.4 1-15.2 3.1-9.4 4-16.8 11.5-20.8 20.9-4.1 9.7-4.1 20.7 0 30.5C118 64 125.5 71.5 134.8 75.5zM74.2 111.3L90.6 111.3 90.6 2.5 74.2 2.5 74.2 48.9 16.4 48.9 16.4 2.5 0 2.5 0 111.3 16.4 111.3 16.4 64.9 74.2 64.9zM11.1 145.8L3.7 145.8 3.7 138.8 0 138.8 0 156.4 3.7 156.4 3.7 148.6 11.1 148.6 11.1 156.4 14.8 156.4 14.8 138.8 11.1 138.8zM24.2 143.3c-1.2 0-2.4.3-3.5.8-1 .6-1.9 1.4-2.4 2.5-.6 1-.8 2.2-.8 3.3l0 0c0 1.3.3 2.6.8 3.8.6 1 1.4 1.9 2.5 2.4 1.1.5 2.2.8 3.4.8 1.8.1 3.5-.7 4.8-1.9 1.3-1.3 2-3.1 1.9-4.9.1-1.8-.6-3.6-1.9-4.9C27.8 143.9 26 143.2 24.2 143.3zM26.5 153.1c-.1.1-.2.2-.3.3-1.3 1.1-3.1 1-4.2-.3-.7-.8-1-1.9-.9-3l0 0c-.1-1.1.3-2.1.9-3 .1-.1.2-.2.3-.3 1.2-1.1 3.1-1 4.2.3.7.8 1 1.9.9 2.9C27.5 151.1 27.1 152.2 26.5 153.1zM43.1 155.7c1.1-.9 1.8-2.2 2-3.5l-3.4-.6c-.1.7-.4 1.4-.9 1.9-.4.4-1 .6-1.6.6-.8 0-1.6-.3-2.1-1-.6-1-.9-2.1-.8-3.3-.1-1.1.2-2.1.8-3 .5-.6 1.3-.9 2-.9.6 0 1.1.2 1.6.5.4.4.7.9.8 1.5l3.4-.6 0 0c-.3-1.2-1-2.3-2-3.1-1.1-.7-2.4-1.1-3.8-1-1.7-.1-3.4.6-4.6 1.8-2.3 3-2.3 7.1 0 10 1.2 1.2 2.9 1.9 4.6 1.8C40.6 157 42 156.6 43.1 155.7zM59.4 156.4v-7.7c0-.9 0-1.7-.2-2.6-.1-.5-.3-1.1-.7-1.5-.4-.5-.9-.9-1.5-1.1-2.2-1-4.8-.3-6.3 1.5v-6.3h-3.3v18.1h3.3v-6.9c0-.8.1-1.7.3-2.5.2-.5.6-1 1.1-1.3.5-.3 1.1-.4 1.6-.4.5 0 .9.1 1.3.3.3.2.6.5.7.9.2.9.3 1.7.2 2.6v6.9H59.4zM72.4 155.6c.9-.7 1.5-1.9 1.5-3.1.1-1-.3-1.9-1.1-2.6-1.2-.8-2.5-1.3-3.8-1.5-1.1-.2-2.2-.5-3.2-1-.2-.1-.3-.4-.3-.6 0-.3.2-.6.4-.7.6-.3 1.3-.4 1.9-.4.6 0 1.2.1 1.7.4.4.3.7.7.8 1.2l3.2-.6c-.3-1-.9-2-1.8-2.6-1.2-.7-2.6-1-4-.9-1.5-.1-2.9.3-4.1 1.2-.9.7-1.3 1.7-1.3 2.8 0 1.2.6 2.3 1.5 2.9 1.7.8 3.5 1.4 5.3 1.7.4.1.8.2 1.2.5.2.2.3.4.2.6 0 .4-.2.7-.5.9-.6.4-1.3.5-2 .5-.7 0-1.3-.1-1.9-.5-.5-.4-.8-.9-.9-1.5l-3.5.5c.3 1.2 1 2.2 2 2.9 1.3.8 2.7 1.2 4.2 1.1C69.5 157 71.1 156.6 72.4 155.6zM84.2 153.5c-.4.4-1 .6-1.6.6-.8 0-1.6-.3-2.1-1-.6-1-.9-2.1-.8-3.3-.1-1.1.2-2.1.8-3 .5-.6 1.3-.9 2-.9.6 0 1.1.2 1.6.5.4.4.7.9.8 1.5l3.4-.6c-.3-1.2-1-2.3-2-3.1-1.1-.7-2.4-1.1-3.8-1-1.7-.1-3.4.6-4.6 1.8-2.3 3-2.3 7.1 0 10 1.2 1.2 2.9 1.9 4.6 1.8 1.4.1 2.8-.3 4-1.2 1.1-.9 1.8-2.2 2-3.5l-3.4-.6C85 152.3 84.7 153 84.2 153.5zM88.3 147.4L88.3 147.4 88.3 147.4zM94.3 149.9c0-.8.1-1.7.3-2.5.2-.5.5-1 1-1.3.5-.3 1-.4 1.5-.4.4 0 .9.1 1.2.3.3.2.6.5.7.9.2.9.2 1.7.2 2.6v6.9h3.7v-7.7c0-.9 0-1.7-.2-2.6-.1-.5-.3-1.1-.7-1.5-.4-.5-.9-.9-1.5-1.1-2.2-1-4.8-.3-6.3 1.5v-6.3H91v18.1h3.3V149.9zM118 156.8v-13.1h-3.7v5.5c.1 1.2 0 2.4-.2 3.5-.2.5-.5.9-1 1.2-.5.3-1 .5-1.6.5-.4 0-.9-.1-1.3-.4-.3-.2-.6-.6-.7-1-.2-1.1-.2-2.2-.2-3.4v-6h-3.3v8.2c0 1 .1 2 .5 2.9.3.7.8 1.3 1.5 1.6.7.4 1.5.6 2.3.6.8 0 1.7-.2 2.4-.6.7-.4 1.4-.9 1.9-1.6v2.1H118zM121.7 138.8H125V156.9H121.7zM133.5 143.3c-1.6 0-3.2.6-4.3 1.8-1.2 1.4-1.8 3.2-1.7 5.1-.1 1.6.4 3.2 1.3 4.5 1.2 1.5 3.1 2.4 5 2.2 1.3 0 2.5-.3 3.6-1 1-.7 1.7-1.7 2.1-2.9l-3.4-.6 0 0c-.1.5-.4 1-.8 1.4-.4.3-.9.5-1.4.4-.8 0-1.5-.3-2-.8-.6-.7-.9-1.5-.8-2.4h8.7c.2-2.1-.4-4.2-1.6-5.9C137 143.9 135.3 143.2 133.5 143.3zM131.2 149c-.1-.8.2-1.6.7-2.2 0 0 .1-.1.1-.1 1-1 2.6-.9 3.5.1.5.6.8 1.4.8 2.3H131.2zM164.2 151.8c.4-1.2.6-2.5.6-3.8 0-1.4-.2-2.9-.6-4.3-.4-1.1-.9-2.1-1.7-2.9-.7-.8-1.7-1.4-2.7-1.7-1.1-.3-2.3-.4-3.4-.3h-6.7l0 18.1h6.9c1.1 0 2.2-.1 3.2-.4 1-.3 1.8-.8 2.6-1.4C163.1 154.1 163.8 153 164.2 151.8zM160.6 150.9c-.2.7-.5 1.3-.9 1.7-.4.4-.9.6-1.5.7-.7.1-1.5.2-2.2.2h-2.7v-11.9l1.6 0c1 0 2 0 3 .2.6.1 1.2.4 1.7.8.5.5.8 1.1 1 1.7.3 1 .4 2.1.4 3.2C161 148.7 160.9 149.8 160.6 150.9zM169.3 138.4H172.20000000000002V141.3H169.3zM176.2 154.8v2.1l3.3 0v-13.1h-3.7v5.5c.1 1.2 0 2.4-.2 3.5-.2.5-.5.9-1 1.2-.5.3-1 .5-1.6.5-.4 0-.9-.1-1.3-.4-.3-.2-.6-.6-.7-1-.2-1.1-.2-2.2-.2-3.4v-6h-3.3v8.2c0 1 .1 2 .5 2.9.3.7.8 1.3 1.5 1.6.7.4 1.5.6 2.3.6.8 0 1.7-.2 2.4-.6C175.1 156 175.8 155.5 176.2 154.8zM174.6 138.4H177.5V141.3H174.6zM189 148.4c-1.1-.2-2.2-.5-3.2-1-.2-.1-.3-.4-.3-.6 0-.3.2-.6.4-.7.6-.3 1.3-.4 1.9-.4.6 0 1.2.1 1.7.4.4.3.7.7.8 1.2l3.2-.6c-.3-1-.9-2-1.8-2.6-1.2-.7-2.6-1-4-.9-1.5-.1-2.9.3-4.1 1.2-.9.7-1.3 1.7-1.3 2.8 0 1.2.6 2.3 1.5 2.9 1.7.8 3.5 1.4 5.3 1.7.4.1.8.2 1.2.5.2.2.3.4.2.6 0 .4-.2.7-.5.9-.6.4-1.3.5-2 .5-.7 0-1.3-.1-1.9-.5-.5-.4-.8-.9-.9-1.5l-3.5.5 0 0c.3 1.2 1 2.2 2 2.9 1.3.8 2.7 1.2 4.2 1.1 1.6.1 3.2-.3 4.4-1.3.9-.7 1.5-1.9 1.5-3.1.1-1-.3-1.9-1.1-2.6C191.7 149.2 190.4 148.7 189 148.4zM206.4 155.6c.9-.7 1.5-1.9 1.5-3.1.1-1-.3-1.9-1.1-2.6-1.2-.8-2.5-1.3-3.8-1.5-1.1-.2-2.2-.5-3.2-1-.2-.1-.3-.4-.3-.6 0-.3.1-.5.4-.7.6-.3 1.3-.4 1.9-.4.6 0 1.2.1 1.7.4.4.3.7.7.8 1.2l3.2-.6c-.3-1-.9-2-1.8-2.6-1.2-.7-2.6-1-4-.9-1.5-.1-2.9.3-4.1 1.2-.9.7-1.3 1.7-1.3 2.8 0 1.2.5 2.3 1.5 2.9 1.7.8 3.5 1.4 5.3 1.7.4.1.8.2 1.2.5.2.2.3.4.2.6 0 .4-.2.7-.5.9-.6.4-1.3.5-2 .5-.7 0-1.3-.1-1.9-.5-.5-.4-.8-.9-.9-1.5l-3.5.5c.3 1.2 1 2.2 2 2.9 1.3.8 2.7 1.2 4.2 1.1C203.6 157 205.2 156.6 206.4 155.6zM219.8 155.9c1-.7 1.7-1.7 2.1-2.9l-3.4-.6 0 0c-.1.5-.4 1-.8 1.4-.4.3-.9.5-1.4.4-.8 0-1.5-.3-2-.8-.6-.7-.9-1.5-.8-2.4h8.6c.2-2.1-.4-4.2-1.6-5.9-1.2-1.3-2.8-2-4.6-1.9-1.6 0-3.2.6-4.3 1.8-1.2 1.4-1.8 3.2-1.7 5.1-.1 1.6.4 3.2 1.3 4.5 1.2 1.5 3.1 2.4 5 2.2C217.5 157 218.8 156.6 219.8 155.9zM214.2 146.8c.5-.5 1.1-.8 1.9-.8.7 0 1.3.3 1.8.8.5.6.8 1.4.8 2.3l-5.2 0C213.5 148.2 213.7 147.4 214.2 146.8zM225 138.8H228.3V156.9H225zM240.6 154.7v2.1h3.3l0 0v-18.1h-3.3v6.3c-1.2-.9-2.5-1.5-4-1.8-1.5 0-2.9.6-3.9 1.7-2.1 3-2.1 7.1 0 10.1.3.4.7.7 1.1 1C236.1 157.6 239.1 157 240.6 154.7zM235.2 152.8c-.5-.9-.7-2-.6-3l0 0c-.1-1 .2-2.1.8-2.9.5-.6 1.3-1 2-1 .8 0 1.6.3 2.1 1 .6 1 .9 2.1.8 3.2.1 1.1-.2 2.1-.8 3-.5.6-1.2 1-2 1C236.6 154.2 235.7 153.7 235.2 152.8zM257.9 155c1.3-1.3 2-3.1 1.9-4.9.1-1.8-.6-3.6-1.9-4.9-1.3-1.3-3-2-4.8-1.9-1.2 0-2.4.3-3.5.8-1 .6-1.9 1.4-2.4 2.5-.6 1-.8 2.2-.8 3.3l0 0c0 1.3.3 2.6.8 3.8.5 1 1.4 1.9 2.5 2.4 1.1.5 2.2.8 3.4.8C254.9 157 256.7 156.3 257.9 155zM250.9 153.1c-.7-.8-1-1.9-.9-3-.1-1.1.3-2.1.9-3 .1-.1.2-.2.3-.3 1.3-1.1 3.2-1 4.2.3.7.8 1 1.9.9 2.9.1 1.1-.2 2.1-.9 3-.1.1-.2.2-.3.3C253.9 154.5 252 154.3 250.9 153.1zM270.9 143.9c-.7-.4-1.5-.6-2.3-.7-.5 0-1.1.1-1.5.4-.6.5-1.1 1.1-1.5 1.7v-1.7h-3.3v13.1h3.7l0 0v-4.2c-.2-1.5-.1-2.9.2-4.4.1-.6.4-1.1.8-1.4.3-.3.8-.4 1.2-.4.6 0 1.1.2 1.6.6L270.9 143.9zM270.9 143.3L270.9 143.3 270.9 143.3zM273 146.2v10.3h3.3v-10.3h2.5v-2.9h-2.5v-.9c0-.5.1-.9.3-1.3.3-.3.6-.4 1-.3.5 0 1 .1 1.5.2l.4-2.4c-.9-.3-1.8-.4-2.7-.4-.8 0-1.6.1-2.3.5-.5.3-1 .8-1.2 1.3-.3.8-.4 1.6-.3 2.5v1h-2v2.9H273zM12.3 179.1c.2 1.6-.2 3.2-1.1 4.6-1 .9-2.4 1.3-3.8 1.2-.9 0-1.8-.2-2.6-.6-.7-.4-1.2-1-1.5-1.7-.3-1.1-.5-2.3-.4-3.5v-10.4H.4v10.4c-.1 1.5.2 3.1.7 4.5.5 1.1 1.3 2 2.3 2.5 1.3.6 2.7.9 4.2.9 1.5.1 3-.3 4.3-1 1-.6 1.8-1.5 2.2-2.6.5-1.4.7-2.8.6-4.3v-10.4h-2.5V179.1zM27.9 174.9c-.4-.5-.9-.9-1.5-1.1-.7-.3-1.4-.4-2.2-.4-1.7-.1-3.3.8-4.2 2.2v-1.9h-2v13.1l2 0v-7.1c-.2-1.2.2-2.5 1.1-3.4.7-.6 1.6-.9 2.6-.9.6 0 1.1.1 1.6.4.4.2.8.6 1 1.1.2.7.3 1.3.3 2v7.9h2v-8.1c0-.7 0-1.4-.1-2.2C28.5 176 28.2 175.4 27.9 174.9zM32.4 173.7H34.4V186.79999999999998H32.4z"/><path transform="rotate(-89.934 33.403 169.968)" class="st0" d="M32.2 168.9H34.7V170.9H32.2z"/><path class="st0" d="M43.1 181.7c-.3 1-.6 1.8-.8 2.5-.2-.9-.5-1.8-.8-2.6l-2.8-7.9h-2.3l5 13.1 2 0 5-13.1H46L43.1 181.7zM55.6 173.7c-1.7-.1-3.3.6-4.4 1.8-1.2 1.4-1.8 3.2-1.7 5.1-.1 1.8.5 3.6 1.7 4.9 1.2 1.2 2.8 1.8 4.5 1.8 1.3.1 2.6-.3 3.7-1.1 1-.8 1.7-1.9 2-3.1l-2.3-.3c-.2.8-.7 1.5-1.4 2-.6.4-1.3.7-2.1.6-1 0-2-.4-2.7-1.1-.8-.9-1.2-2.1-1.2-3.3h9.7v-.6c.1-1.8-.5-3.6-1.6-5C58.8 174.3 57.2 173.6 55.6 173.7zM51.9 179c0-1 .4-2 1.1-2.7.7-.7 1.6-1 2.6-1 1.1 0 2.1.4 2.7 1.3.5.7.8 1.6.8 2.5H51.9zM59.2 182.8L59.2 182.8C59.2 182.8 59.2 182.8 59.2 182.8L59.2 182.8zM67.6 173.9c-.6.5-1.2 1.2-1.6 1.8v-2.1h-1.6v13.1l2 0V180c.1-.9.2-1.7.4-2.6.1-.5.4-.9.8-1.2.4-.3.8-.4 1.3-.4.6 0 1.1.2 1.6.5l.8-2.1c-.7-.4-1.5-.7-2.3-.7C68.5 173.5 68 173.6 67.6 173.9zM71.7 182.9L71.7 182.9 71.7 182.9zM80.5 179.9c-1.1-.4-2.2-.8-3.3-1-1.1-.3-1.7-.5-1.9-.6-.3-.1-.6-.3-.8-.6-.2-.2-.3-.5-.3-.8 0-.5.3-.9.6-1.2.7-.4 1.4-.6 2.2-.5.7 0 1.4.2 2 .6.5.4.8 1 .9 1.6l2.2-.3c-.1-.7-.4-1.4-.8-2-.4-.6-1-1-1.7-1.2-.9-.3-1.8-.5-2.7-.4-.6 0-1.3.1-1.9.3-.5.1-1 .4-1.4.6-.5.3-.8.7-1.1 1.2-.3.5-.4 1-.4 1.6 0 1.3.7 2.5 1.9 3 1.1.5 2.2.8 3.4 1.1.8.2 1.5.4 2.3.8.4.2.7.7.7 1.2 0 .6-.3 1.1-.7 1.5-.7.5-1.5.7-2.3.6-.8.1-1.7-.2-2.3-.7-.6-.5-1-1.2-1-2l-2.2.3c.2 1.2.8 2.3 1.7 3.1 1.1.8 2.5 1.1 3.9 1.1.9 0 1.9-.2 2.7-.5.8-.3 1.4-.8 1.9-1.5.4-.6.6-1.3.6-2.1 0-.7-.2-1.3-.5-1.9C81.6 180.6 81.1 180.2 80.5 179.9z"/><path transform="rotate(-89.934 86.275 169.968)" class="st0" d="M85 168.9H87.5V170.9H85z"/><path class="st0" d="M85.3 173.7H87.3V186.79999999999998H85.3zM95.5 184.7L95.5 184.7 95.5 184.7zM94.6 184.7c-.2 0-.5 0-.7-.2-.2-.1-.3-.3-.4-.4-.1-.4-.1-.8-.1-1.2v-7.6h2.1v-1.6h-2v-4.6l-2 1.3v3.2h-2v1.6h2v7.5c-.1.9 0 1.8.2 2.6.2.4.5.8.9 1 .5.3 1.1.4 1.7.4.5 0 1-.1 1.6-.2l-.3-1.9C95.2 184.7 94.9 184.7 94.6 184.7zM103.4 181.3c-.4 1-.7 2-.9 3-.3-1.1-.6-2.1-.9-3l-2.7-7.5h-2.4l4.9 13.1c-.1.2-.2.4-.2.5-.2.6-.4 1.1-.7 1.6-.2.3-.4.5-.7.7-.4.2-.8.3-1.2.2-.4 0-.9-.1-1.3-.2l.2 2.1 0 0c.5.2.9.3 1.4.3.6 0 1.3-.2 1.8-.5.6-.4 1-1 1.4-1.6.5-1 .9-2 1.2-3l5-13.3h-2.2L103.4 181.3zM121.3 173.4c-1.5 0-3 .5-4.1 1.5-1.4 1.4-2.2 3.4-2 5.4h0c-.1 1.8.5 3.6 1.7 5 1.2 1.2 2.8 1.8 4.4 1.8 1.1 0 2.2-.3 3.1-.8.9-.5 1.7-1.3 2.2-2.2.6-1.2.8-2.6.8-4 .1-1.8-.5-3.5-1.7-4.9C124.5 174 122.9 173.4 121.3 173.4zM124 184c-.1.1-.2.2-.3.3-1.5 1.3-3.8 1.2-5.1-.3-.8-1.1-1.2-2.4-1.1-3.7-.1-1.3.3-2.7 1.1-3.7.7-.8 1.7-1.3 2.7-1.2 1 0 2 .4 2.7 1.2.8 1 1.2 2.4 1.1 3.7C125.2 181.6 124.8 182.9 124 184zM132 168.9c-.5.3-.9.8-1 1.4-.2.6-.2 1.3-.2 1.9v1.4h-2.5v1.6h2v11.5l0 0h2.5v-11.5h2.5v-1.6h-2.5v-1.2c-.1-.6.1-1.1.4-1.6.4-.3.8-.5 1.3-.4.4 0 .8 0 1.2.1l.3-1.9c-.6-.1-1.3-.2-1.9-.2C133.4 168.4 132.6 168.6 132 168.9zM149.1 168.7l-6.9 18.1h2.7l1.9-5.3h7.3l2 5.3h2.9l-7.4-18.1H149.1zM147.4 179.4l2-5.3c.4-1.1.7-2.3 1-3.4.3 1 .7 2.2 1.3 3.7l1.9 5H147.4zM169.4 174.3c-.9-.6-1.9-.9-2.9-.9-.8 0-1.5.2-2.2.5-.6.4-1.2.9-1.6 1.5v-1.8h-2v18.1 0h2.5v-6.3c.3.5.7.9 1.2 1.2.6.3 1.3.5 2 .5 2.2 0 4.1-1.3 5-3.3.5-1.1.7-2.4.7-3.6 0-1.2-.2-2.3-.6-3.4C170.9 175.8 170.3 174.9 169.4 174.3zM168.7 184c-.6.8-1.5 1.2-2.5 1.2-1 0-1.9-.4-2.5-1.2-.8-1.1-1.1-2.4-1-3.7l0 0c-.1-1.4.3-2.7 1.1-3.8.6-.8 1.5-1.3 2.5-1.3 1 0 1.9.5 2.5 1.2.8 1.1 1.1 2.4 1 3.7C169.8 181.6 169.5 182.9 168.7 184zM183.4 174.3c-.9-.6-1.9-.9-2.9-.9-.8 0-1.5.2-2.2.5-.6.4-1.2.9-1.6 1.5v-1.8h-2v18.1l0 0h2.5v-6.3c.3.5.8.9 1.2 1.2.6.3 1.3.5 2 .5 2.2 0 4.1-1.3 5-3.3.5-1.1.7-2.4.7-3.6 0-1.2-.2-2.3-.7-3.4C184.9 175.8 184.2 174.9 183.4 174.3zM182.6 184c-.6.8-1.5 1.2-2.5 1.2-1 0-1.9-.4-2.5-1.2-.8-1.1-1.1-2.4-1-3.7l0 0c-.1-1.4.3-2.7 1.1-3.8.6-.8 1.5-1.3 2.5-1.3 1 0 1.9.5 2.5 1.2.8 1.1 1.1 2.4 1 3.7C183.8 181.6 183.4 182.9 182.6 184zM188.5 168.7H190.5V186.79999999999998H188.5z"/><path transform="rotate(-89.934 195.299 169.968)" class="st0" d="M194.1 168.9H196.6V170.9H194.1z"/><path class="st0" d="M194.3 173.7H196.3V186.79999999999998H194.3zM205.1 173.7c-1.7-.1-3.3.6-4.4 1.8-1.2 1.4-1.8 3.2-1.7 5.1-.1 1.8.5 3.6 1.7 4.9 1.2 1.2 2.8 1.8 4.5 1.8 1.3.1 2.6-.3 3.7-1.1 1-.8 1.7-1.9 2-3.1l-2.3-.3 0 0c-.2.8-.7 1.5-1.4 2.1-.6.4-1.3.7-2.1.6-1 0-2-.4-2.7-1.1-.8-.9-1.2-2.1-1.2-3.3h9.7v-.6c.1-1.8-.5-3.6-1.6-5C208.3 174.3 206.7 173.6 205.1 173.7zM201.5 179c0-1 .4-2 1.1-2.7.7-.7 1.6-1.1 2.6-1 1.1 0 2.1.4 2.7 1.3.5.7.8 1.6.8 2.5H201.5zM222.1 175.3c-.5-.5-1-1-1.6-1.3-.6-.3-1.4-.5-2.1-.5-1 0-2 .3-2.9.8-.9.6-1.6 1.4-1.9 2.4-.4 1.1-.7 2.3-.7 3.5 0 1.2.2 2.4.7 3.5.4 1 1.1 1.8 2 2.4.8.6 1.8.9 2.9.9 1.6 0 3.2-1.9 3.2-1.9v1.6l0 0h2.5v-18.1h-2V175.3zM221.2 184.1c-.6.8-1.5 1.2-2.5 1.2-1 0-1.9-.5-2.5-1.2-.8-1.1-1.2-2.4-1.1-3.7l0 0c-.1-1.3.2-2.7 1-3.8.6-.8 1.5-1.2 2.5-1.2 1 0 1.9.4 2.5 1.2.8 1.2 1.1 2.5 1 3.9C222.3 181.8 222 183 221.2 184.1zM245.4 177.3c-1.3-.5-2.6-.9-4-1.1-1.3-.2-2.5-.6-3.6-1.3-.5-.4-.7-1-.7-1.6 0-.8.4-1.5 1-1.9.9-.6 2-.9 3.1-.8 1.1-.1 2.2.2 3.1.9.7.7 1.2 1.6 1.2 2.6l2.3-.2c0-1-.3-2-.9-2.8-.6-.9-1.4-1.5-2.3-1.9-1.1-.4-2.3-.7-3.5-.6-1.1 0-2.2.2-3.3.6-.9.4-1.7 1-2.3 1.8-.5.8-.8 1.6-.8 2.6 0 .8.2 1.6.6 2.2.5.7 1.1 1.3 1.9 1.7 1.1.5 2.3.9 3.5 1.1 1.1.2 2.1.5 3.2.9.6.2 1.2.6 1.6 1.1.3.4.5.9.5 1.5 0 .6-.2 1.1-.5 1.5-.4.5-.9.9-1.5 1.1-.8.3-1.6.4-2.4.4-.9 0-1.9-.2-2.8-.5-.7-.3-1.4-.8-1.8-1.4-.4-.7-.7-1.4-.7-2.2l-2.2.2 0 0c0 1.1.4 2.3 1 3.2.6 1 1.5 1.7 2.6 2.1 1.3.5 2.7.8 4.1.7 1.2 0 2.4-.2 3.5-.7 1-.4 1.8-1.1 2.4-2 .5-.8.8-1.7.8-2.7 0-.9-.2-1.8-.8-2.6C247.1 178.3 246.3 177.7 245.4 177.3zM258.9 184.5c-.6.5-1.4.8-2.2.8-1 0-2-.4-2.6-1.2-.8-1.1-1.1-2.5-1-3.8-.1-1.3.3-2.7 1-3.8.7-.8 1.7-1.2 2.7-1.2.7 0 1.4.2 1.9.7.6.5.9 1.2 1.1 2l2.1-.3c-.2-1.2-.8-2.3-1.7-3.1-1-.7-2.2-1.1-3.5-1.1-1.1 0-2.2.3-3.1.8-1 .5-1.7 1.4-2.1 2.4-.5 1.2-.7 2.4-.7 3.7-.1 1.8.5 3.6 1.6 5 1.1 1.2 2.7 1.8 4.3 1.7 1.3 0 2.6-.4 3.6-1.3 1-.9 1.7-2.2 1.8-3.5L260 182C259.9 183 259.5 183.8 258.9 184.5zM259.9 182L260 182 260 182z"/><path transform="rotate(-89.934 264.976 169.968)" class="st0" d="M263.7 168.9H266.2V170.9H263.7z"/><path class="st0" d="M264 173.7H266V186.79999999999998H264zM278.5 182.8L278.5 182.8C278.5 182.8 278.5 182.8 278.5 182.8L278.5 182.8zM274.9 173.7c-1.7-.1-3.3.6-4.4 1.8-1.2 1.4-1.8 3.2-1.7 5.1-.1 1.8.5 3.6 1.7 4.9 2.3 2.1 5.7 2.3 8.3.7 1-.8 1.7-1.9 2-3.1l-2.3-.3c-.2.8-.7 1.5-1.4 2-.6.4-1.3.7-2.1.6-1 0-2-.4-2.7-1.1-.8-.9-1.2-2.1-1.2-3.3h9.7v-.6c.1-1.8-.5-3.6-1.6-5C278.1 174.3 276.6 173.6 274.9 173.7zM271.3 179L271.3 179c0-1 .4-2 1.1-2.7.7-.7 1.6-1.1 2.6-1 1.1 0 2.1.4 2.7 1.3.5.7.8 1.6.8 2.5H271.3zM293.5 174.9c-.4-.5-.9-.9-1.5-1.1-.7-.3-1.4-.4-2.2-.4-1.7-.1-3.3.8-4.1 2.2v-1.9h-2v13.1l2 0v-7.1c-.2-1.2.2-2.5 1-3.4.7-.6 1.5-.9 2.4-.9.5 0 1.1.1 1.5.4.4.2.7.6.9 1.1.2.7.3 1.3.3 2v7.9h2.5v-8.1c0-.7 0-1.4-.1-2.2C294 176 293.8 175.4 293.5 174.9zM306 182c-.1.9-.5 1.8-1.1 2.5-.6.5-1.4.8-2.2.8-1 0-2-.4-2.6-1.2-.8-1.1-1.1-2.5-1-3.8-.1-1.3.3-2.7 1-3.8.7-.8 1.7-1.2 2.7-1.2.7 0 1.4.2 1.9.7.6.5.9 1.2 1.1 2l2.1-.3c-.2-1.2-.8-2.3-1.7-3.1-1-.7-2.2-1.1-3.5-1.1-1.1 0-2.2.3-3.1.8-1 .5-1.7 1.4-2.1 2.4-.5 1.2-.7 2.4-.7 3.7-.1 1.8.5 3.6 1.6 5 1.1 1.2 2.7 1.8 4.3 1.7 1.3 0 2.6-.4 3.6-1.3 1-.9 1.7-2.2 1.8-3.5L306 182 306 182zM315.4 173.7c-1.7-.1-3.2.6-4.4 1.8-1.2 1.4-1.8 3.2-1.7 5.1-.1 1.8.5 3.6 1.7 4.9 1.2 1.2 2.8 1.8 4.5 1.8 1.3.1 2.6-.3 3.7-1.1 1-.8 1.7-1.9 2-3.1l-2.3-.3 0 0c-.2.8-.7 1.5-1.4 2.1-.6.4-1.3.7-2.1.6-1 0-2-.4-2.7-1.1-.8-.9-1.2-2.1-1.2-3.3h9.7v-.6c.1-1.8-.5-3.6-1.6-5C318.6 174.3 317 173.6 315.4 173.7zM311.8 179c0-1 .4-2 1.1-2.7.7-.7 1.6-1 2.6-1 1.1 0 2.1.4 2.7 1.3.5.7.8 1.6.8 2.5H311.8zM332 179.9c-1.1-.4-2.2-.8-3.3-1-1.1-.3-1.7-.5-1.9-.6-.3-.1-.6-.3-.8-.6-.2-.2-.3-.5-.3-.8 0-.5.3-.9.6-1.2.7-.4 1.4-.6 2.2-.5.7 0 1.4.2 2 .6.5.4.8 1 .8 1.6l2.2-.3c-.1-.7-.4-1.4-.8-2-.4-.6-1-1-1.7-1.2-.9-.3-1.8-.5-2.7-.4-.6 0-1.3.1-1.9.3-.5.1-1 .4-1.4.6-.5.3-.8.7-1.1 1.2 0 .1-.1.1-.1.2-.8 1.7-.1 3.7 1.6 4.4 1.1.4 2.2.8 3.4 1.1.8.2 1.5.4 2.3.8.4.2.7.7.7 1.2 0 .6-.3 1.1-.7 1.5-.7.5-1.5.7-2.3.6-.8.1-1.7-.2-2.3-.7-.6-.5-1-1.2-1-2l-2.2.3c.2 1.2.8 2.3 1.7 3.1 1.1.8 2.5 1.1 3.9 1.1.9 0 1.9-.2 2.7-.5.8-.3 1.4-.8 1.9-1.5.4-.6.6-1.3.6-2.1 0-.7-.2-1.3-.5-1.9C333.1 180.6 332.6 180.2 332 179.9zM323.2 182.9L323.2 182.9 323.2 182.9z"/></svg>